PathFileType	4	(X/Y/Z)	C:\Users\WrightLab\Desktop\Jo\P2_Trial40.trc
DataRate	CameraRate	NumFrames	NumMarkers	Units	OrigDataRate	OrigDataStartFrame	OrigNumFrames
100.00	100.00	       13	19	mm	100.00	360	       479
Frame#	Time	Headset_Front			Headset_Back			Headset_Left			Headset_Right			Left_Shoulder			Right_Shoulder			Sternum			C7			Left Elbow			Right Elbow			Left Wrist			Right Wrist			Left ASIS			Right ASIS			S2			Left Knee			Right Knee			Left Ankle			Right Ankle			
		X1	Y1	Z1	X2	Y2	Z2	X3	Y3	Z3	X4	Y4	Z4	X5	Y5	Z5	X6	Y6	Z6	X7	Y7	Z7	X8	Y8	Z8	X9	Y9	Z9	X10	Y10	Z10	X11	Y11	Z11	X12	Y12	Z12	X13	Y13	Z13	X14	Y14	Z14	X15	Y15	Z15	X16	Y16	Z16	X17	Y17	Z17	X18	Y18	Z18	X19	Y19	Z19	

360	3.590	82.56110	1509.87024	2016.17224	211.86449	1720.66577	1828.23352	254.86552	1618.68530	1961.56189	35.24157	1587.70874	1899.17749	354.42953	1482.49036	1873.46741	126.21394	1028.26245	1911.64819	184.23193	1349.29822	1886.11133				489.81741	1168.96289	2004.13147	19.70899	1133.19873	1616.78406	528.16492	960.51257	2111.49390	4.91439	884.76038	1577.71875	255.62712	1054.60034	1951.16650				282.10999	974.94763	1686.09827	483.01059	504.95157	1752.21375	111.11023	582.03485	1875.23352	514.39545	161.42169	1639.39160	51.22088	210.35608	2054.37451	
361	3.600	77.32746	1510.33484	2022.80505	206.52165	1721.67493	1835.23340	249.40063	1619.36487	1968.74744	29.41954	1588.18079	1907.07861	348.88245	1484.18884	1882.78296	119.21295	1031.48303	1920.53418	178.60980	1351.53455	1894.02185				481.98923	1169.52185	2012.35669	14.81722	1133.01160	1627.71667	518.89532	960.71643	2120.50928	0.03870	883.85626	1593.40845	248.68488	1056.45789	1960.10974				276.93185	975.23248	1697.17957	478.32996	507.09045	1764.70996	98.89285	584.34344	1885.25317	513.73370	166.42741	1644.59106	47.18122	207.83995	2055.93750	
362	3.610	72.16390	1511.17395	2029.51624	201.29419	1722.96057	1842.48694	244.05228	1620.57568	1975.94287	23.12830	1589.07251	1913.29346	343.69513	1485.83215	1891.28809	111.83870	1034.99768	1927.47754	172.91205	1353.87695	1902.12500				474.03455	1170.22668	2021.93738	9.93675	1132.75562	1639.07629	510.13577	961.10736	2127.36206	-4.12802	883.03156	1609.93481	240.97441	1058.69995	1969.46021				272.08990	976.02069	1707.59778	472.88559	508.77051	1778.26001	88.04835	585.91766	1897.80066				43.47095	203.70366	2060.77515	
363	3.620	66.76497	1512.61658	2035.89063	196.36319	1723.94055	1849.43018	238.90775	1621.88708	1982.66492	18.28909	1590.15735	1919.00110	338.03592	1488.03625	1899.90503	104.66042	1038.20972	1935.66455	166.97737	1355.92004	1910.23218				466.50580	1170.42786	2030.81384	5.16964	1132.18604	1650.34045	500.54245	960.42584	2135.28931	-9.32698	882.26740	1627.68835	233.87759	1060.16296	1977.88940				267.43970	976.71753	1716.06543	467.01303	510.73654	1793.22583	74.33504	588.88776	1905.20728				40.10060	199.99184	2064.64038	
364	3.630	61.60659	1513.13293	2040.43237	192.34407	1724.93335	1854.65515	233.95419	1623.35608	1989.27942	14.69302	1590.85608	1923.70703	332.66959	1489.03247	1907.72192	97.51419	1041.20789	1942.75146	161.17336	1357.79248	1917.97815				458.60840	1171.27563	2040.30164	0.06931	1131.31616	1661.39307	491.46292	959.97571	2141.83081	-15.05154	881.41229	1644.47339	226.41737	1061.86536	1986.21521				262.02267	977.24316	1725.08020	461.65012	511.57965	1807.44568	62.16660	587.40088	1915.53564				36.43658	194.96954	2065.81592	
365	3.640	56.08411	1514.54211	2046.36877	187.79024	1726.39868	1860.87427	228.60771	1625.12024	1996.57788	10.27076	1593.02710	1929.26721	327.38104	1490.13525	1915.47595	90.19321	1042.70752	1949.72034	155.68564	1359.54077	1924.53540				450.87213	1171.70032	2048.87061	-4.82454	1130.55591	1672.80774	481.73160	958.50415	2149.41553	-20.70691	881.57410	1661.88110	218.61670	1064.03027	1995.04236				256.50418	977.44049	1732.92688	454.15002	512.07935	1824.92090	51.47793	589.32184	1926.22217				34.27253	188.64655	2068.89038	
366	3.650	51.47118	1515.94666	2052.31274	183.04889	1727.75256	1867.41504	223.88370	1626.89307	2003.05701	5.25742	1593.80200	1935.55920	322.47458	1491.08655	1922.53088	83.23869	1044.36743	1957.39978	150.15436	1361.04846	1930.92749				443.54639	1171.15332	2056.64673	-9.64261	1129.52783	1685.19275	471.69574	957.27960	2157.25269	-26.64278	881.30664	1678.74634	211.15497	1065.25781	2003.45972				251.91449	977.29370	1742.14832	446.39816	510.54428	1842.13318	39.65366	590.22644	1934.07556				31.80643	182.91373	2069.53711	
367	3.660	46.10764	1517.71362	2058.03735	179.09610	1728.93542	1872.67505	219.13455	1628.25488	2009.30969				317.71643	1492.07483	1929.70581	75.98225	1044.16223	1963.91724	144.61386	1362.69104	1936.76221				435.59174	1171.33667	2065.37036	-14.35015	1128.52478	1695.85571	462.20416	955.73987	2163.84961	-32.38163	880.98492	1694.82861	203.92949	1066.21631	2011.69482				246.79706	977.63995	1752.07776	438.04401	509.65207	1860.99316	27.16101	590.24780	1942.39038	512.96777	204.12450	1698.83008	30.22353	177.51823	2071.92993	
368	3.670	40.49955	1519.66028	2063.27661	175.20927	1729.97046	1877.73767	213.82698	1629.83167	2015.82239				312.98743	1492.16211	1937.09729	69.37273	1043.99915	1970.99231	139.87871	1363.29114	1942.59717				428.30042	1171.69202	2074.24707	-19.33750	1128.31238	1707.10425	451.79407	954.42236	2171.22217	-39.83110	881.10077	1710.58704	197.12202	1066.95361	2018.94617				241.52275	978.72626	1760.01453	429.35257	507.97815	1881.98645	16.98578	589.70087	1950.10266	515.41699	206.60786	1709.10669	29.36740	171.70746	2071.47021	
369	3.680	34.87504	1521.97144	2069.91479	170.51654	1731.47498	1884.09460	208.92340	1631.14124	2021.27869				308.71359	1492.62939	1944.49219	62.37434	1043.81604	1979.87683	135.29935	1364.57410	1948.85376				420.72049	1171.96460	2083.35645	-24.15266	1127.44348	1717.71631	441.91266	952.16455	2177.87744	-46.37278	881.12256	1726.45569	190.34865	1068.02563	2027.34924				236.52510	979.34021	1767.70264	420.25912	506.11990	1901.64001	7.73475	589.04688	1956.68896	513.76294	212.84369	1718.94800	28.88191	168.50200	2071.50244	
370	3.690	29.69343	1524.22009	2075.74951	167.28975	1732.00720	1888.93420	204.61420	1631.74792	2025.95007	-12.84298	1600.93909	1956.16199	303.91843	1492.98572	1952.47803	56.71397	1043.37915	1986.64758	130.50484	1366.13049	1955.55042				413.04172	1171.66418	2091.98975	-28.96334	1127.36597	1728.60718	431.95395	949.88879	2184.16650	-53.93335	881.37085	1742.12500	184.46182	1068.68604	2034.67371				231.99786	979.34827	1776.34448	411.59369	503.60242	1920.92358	-1.44019	588.24646	1962.15259	510.78445	221.47113	1734.65979	29.42790	163.61206	2071.01807	
371	3.700	24.69918	1526.31042	2081.21411	163.09723	1733.36243	1894.73511	199.68425	1633.25232	2031.49744	-17.84590	1602.54333	1961.13416	299.39996	1493.47119	1959.81567	51.06915	1044.04626	1992.97205	125.28291	1366.85730	1963.02148				405.04068	1170.04004	2098.32764	-33.63141	1127.17029	1738.49280	421.31369	947.89172	2190.76245	-61.96726	882.01917	1756.31885	178.66649	1069.01184	2041.34070				227.17917	980.55231	1783.99268	402.08469	501.09952	1940.49768	-10.54183	587.94501	1966.54907	506.47293	229.52400	1751.74365	29.37698	162.82959	2070.39697	
372	3.710	19.42249	1528.44373	2085.95264	159.27913	1734.01135	1899.91736	194.99562	1634.40247	2037.21069				295.22668	1493.71899	1967.27869	46.19899	1045.01733	1999.01880	120.13519	1367.55176	1969.06372				396.76581	1169.36816	2105.94336	-38.59859	1127.44861	1748.87463	410.46542	945.69525	2197.13599	-69.95306	882.94177	1771.65942	173.03784	1069.87488	2048.63257				223.12532	981.06702	1792.74622	392.94226	498.46286	1960.24902	-18.19218	588.41266	1968.45361	502.39120	236.46964	1767.67615	29.83354	163.02386	2069.10718	
